<mxfile host="app.diagrams.net" modified="2022-10-03T15:55:19.786Z" agent="5.0 (Windows NT 10.0; Win64; x64) AppleWebKit/537.36 (KHTML, like Gecko) Chrome/105.0.0.0 Safari/537.36" etag="urLTEPRB6DhYDc4oLFWc" version="20.4.0" type="github">
  <diagram id="8TkeQ4yx9zgrdt1YU8Ex" name="第 1 页">
    <mxGraphModel dx="1550" dy="830" grid="1" gridSize="10" guides="1" tooltips="1" connect="1" arrows="1" fold="1" page="1" pageScale="1" pageWidth="827" pageHeight="1169" math="0" shadow="0">
      <root>
        <mxCell id="0" />
        <mxCell id="1" parent="0" />
        <mxCell id="OnN-QpdsKZ5C5_-kFzQ9-1" value="Actor" style="shape=umlActor;verticalLabelPosition=bottom;verticalAlign=top;html=1;outlineConnect=0;" vertex="1" parent="1">
          <mxGeometry x="160" y="400" width="30" height="60" as="geometry" />
        </mxCell>
        <mxCell id="OnN-QpdsKZ5C5_-kFzQ9-2" value="" style="shape=document;whiteSpace=wrap;html=1;boundedLbl=1;" vertex="1" parent="1">
          <mxGeometry x="220" y="330" width="120" height="80" as="geometry" />
        </mxCell>
      </root>
    </mxGraphModel>
  </diagram>
</mxfile>
